<svg width="113" height="32" viewBox="0 0 113 32" fill="none" xmlns="http://www.w3.org/2000/svg">
<path d="M44.9902 12V3.46875H47.7793C48.7051 3.46875 49.4004 3.66016 49.8652 4.04297C50.334 4.42578 50.5684 4.99219 50.5684 5.74219C50.5684 6.14062 50.4551 6.49414 50.2285 6.80273C50.002 7.10742 49.6934 7.34375 49.3027 7.51172C49.7637 7.64062 50.127 7.88672 50.3926 8.25C50.6621 8.60938 50.7969 9.03906 50.7969 9.53906C50.7969 10.3047 50.5488 10.9062 50.0527 11.3438C49.5566 11.7812 48.8555 12 47.9492 12H44.9902ZM46.1152 8.00977V11.0801H47.9727C48.4961 11.0801 48.9082 10.9453 49.209 10.6758C49.5137 10.4023 49.666 10.0273 49.666 9.55078C49.666 8.52344 49.1074 8.00977 47.9902 8.00977H46.1152ZM46.1152 7.10742H47.8145C48.3066 7.10742 48.6992 6.98438 48.9922 6.73828C49.2891 6.49219 49.4375 6.1582 49.4375 5.73633C49.4375 5.26758 49.3008 4.92773 49.0273 4.7168C48.7539 4.50195 48.3379 4.39453 47.7793 4.39453H46.1152V7.10742ZM57.248 9.29883H56.457V12H55.3672V5.66016H56.457V8.34375H57.166L59.2988 5.66016H60.6113L58.1035 8.70703L60.8223 12H59.4453L57.248 9.29883ZM61.3379 8.77148C61.3379 8.15039 61.459 7.5918 61.7012 7.0957C61.9473 6.59961 62.2871 6.2168 62.7207 5.94727C63.1582 5.67773 63.6562 5.54297 64.2148 5.54297C65.0781 5.54297 65.7754 5.8418 66.3066 6.43945C66.8418 7.03711 67.1094 7.83203 67.1094 8.82422V8.90039C67.1094 9.51758 66.9902 10.0723 66.752 10.5645C66.5176 11.0527 66.1797 11.4336 65.7383 11.707C65.3008 11.9805 64.7969 12.1172 64.2266 12.1172C63.3672 12.1172 62.6699 11.8184 62.1348 11.2207C61.6035 10.623 61.3379 9.83203 61.3379 8.84766V8.77148ZM62.4277 8.90039C62.4277 9.60352 62.5898 10.168 62.9141 10.5938C63.2422 11.0195 63.6797 11.2324 64.2266 11.2324C64.7773 11.2324 65.2148 11.0176 65.5391 10.5879C65.8633 10.1543 66.0254 9.54883 66.0254 8.77148C66.0254 8.07617 65.8594 7.51367 65.5273 7.08398C65.1992 6.65039 64.7617 6.43359 64.2148 6.43359C63.6797 6.43359 63.248 6.64648 62.9199 7.07227C62.5918 7.49805 62.4277 8.10742 62.4277 8.90039ZM73.8242 8.90039C73.8242 9.86523 73.6035 10.6426 73.1621 11.2324C72.7207 11.8223 72.123 12.1172 71.3691 12.1172C70.5996 12.1172 69.9941 11.873 69.5527 11.3848V14.4375H68.4688V5.66016H69.459L69.5117 6.36328C69.9531 5.81641 70.5664 5.54297 71.3516 5.54297C72.1133 5.54297 72.7148 5.83008 73.1562 6.4043C73.6016 6.97852 73.8242 7.77734 73.8242 8.80078V8.90039ZM72.7402 8.77734C72.7402 8.0625 72.5879 7.49805 72.2832 7.08398C71.9785 6.66992 71.5605 6.46289 71.0293 6.46289C70.373 6.46289 69.8809 6.75391 69.5527 7.33594V10.3652C69.877 10.9434 70.373 11.2324 71.041 11.2324C71.5605 11.2324 71.9727 11.0273 72.2773 10.6172C72.5859 10.2031 72.7402 9.58984 72.7402 8.77734ZM78.6934 7.39453C78.6934 7.09766 78.5801 6.86328 78.3535 6.69141C78.127 6.51562 77.8164 6.42773 77.4219 6.42773C77.0391 6.42773 76.7188 6.52734 76.4609 6.72656C76.207 6.92578 76.0801 7.16016 76.0801 7.42969H75.002C75.002 6.87891 75.2324 6.42773 75.6934 6.07617C76.1543 5.72461 76.7305 5.54883 77.4219 5.54883C78.1641 5.54883 78.7422 5.70898 79.1562 6.0293C79.5703 6.3457 79.7773 6.79883 79.7773 7.38867C79.7773 7.67383 79.6914 7.93555 79.5195 8.17383C79.3477 8.41211 79.1035 8.60156 78.7871 8.74219C79.5254 8.99219 79.8945 9.48438 79.8945 10.2188C79.8945 10.8008 79.6699 11.2617 79.2207 11.6016C78.7715 11.9414 78.1719 12.1113 77.4219 12.1113C76.6914 12.1113 76.0879 11.9336 75.6113 11.5781C75.1387 11.2188 74.9023 10.7344 74.9023 10.125H75.9805C75.9805 10.4336 76.1172 10.6992 76.3906 10.9219C76.668 11.1406 77.0117 11.25 77.4219 11.25C77.8359 11.25 78.1699 11.1543 78.4238 10.9629C78.6777 10.7715 78.8047 10.5234 78.8047 10.2188C78.8047 9.86328 78.6973 9.60938 78.4824 9.45703C78.2715 9.30078 77.9414 9.22266 77.4922 9.22266H76.4082V8.30859H77.5859C78.3242 8.28906 78.6934 7.98438 78.6934 7.39453ZM85.4023 5.66016H86.4863V12H85.4023V7.37695L82.4785 12H81.3945V5.66016H82.4785V10.2891L85.4023 5.66016ZM93.4062 12H92.3223V9.29297H89.4102V12H88.3203V5.66016H89.4102V8.4082H92.3223V5.66016H93.4062V12ZM97.7832 12.1172C96.9238 12.1172 96.2246 11.8359 95.6855 11.2734C95.1465 10.707 94.877 9.95117 94.877 9.00586V8.80664C94.877 8.17773 94.9961 7.61719 95.2344 7.125C95.4766 6.62891 95.8125 6.24219 96.2422 5.96484C96.6758 5.68359 97.1445 5.54297 97.6484 5.54297C98.4727 5.54297 99.1133 5.81445 99.5703 6.35742C100.027 6.90039 100.256 7.67773 100.256 8.68945V9.14062H95.9609C95.9766 9.76562 96.1582 10.2715 96.5059 10.6582C96.8574 11.041 97.3027 11.2324 97.8418 11.2324C98.2246 11.2324 98.5488 11.1543 98.8145 10.998C99.0801 10.8418 99.3125 10.6348 99.5117 10.377L100.174 10.8926C99.6426 11.709 98.8457 12.1172 97.7832 12.1172ZM97.6484 6.43359C97.2109 6.43359 96.8438 6.59375 96.5469 6.91406C96.25 7.23047 96.0664 7.67578 95.9961 8.25H99.1719V8.16797C99.1406 7.61719 98.9922 7.19141 98.7266 6.89062C98.4609 6.58594 98.1016 6.43359 97.6484 6.43359ZM50 28H48.916V25.293H46.0039V28H44.9141V21.6602H46.0039V24.4082H48.916V21.6602H50V28ZM54.377 28.1172C53.5176 28.1172 52.8184 27.8359 52.2793 27.2734C51.7402 26.707 51.4707 25.9512 51.4707 25.0059V24.8066C51.4707 24.1777 51.5898 23.6172 51.8281 23.125C52.0703 22.6289 52.4062 22.2422 52.8359 21.9648C53.2695 21.6836 53.7383 21.543 54.2422 21.543C55.0664 21.543 55.707 21.8145 56.1641 22.3574C56.6211 22.9004 56.8496 23.6777 56.8496 24.6895V25.1406H52.5547C52.5703 25.7656 52.752 26.2715 53.0996 26.6582C53.4512 27.041 53.8965 27.2324 54.4355 27.2324C54.8184 27.2324 55.1426 27.1543 55.4082 26.998C55.6738 26.8418 55.9062 26.6348 56.1055 26.377L56.7676 26.8926C56.2363 27.709 55.4395 28.1172 54.377 28.1172ZM54.2422 22.4336C53.8047 22.4336 53.4375 22.5938 53.1406 22.9141C52.8438 23.2305 52.6602 23.6758 52.5898 24.25H55.7656V24.168C55.7344 23.6172 55.5859 23.1914 55.3203 22.8906C55.0547 22.5859 54.6953 22.4336 54.2422 22.4336ZM62.75 22.5391H60.623V28H59.5391V22.5391H57.4531V21.6602H62.75V22.5391ZM71.4922 22.5391H69.3652V28H68.2812V22.5391H66.1953V21.6602H71.4922V22.5391ZM72.0137 24.7715C72.0137 24.1504 72.1348 23.5918 72.377 23.0957C72.623 22.5996 72.9629 22.2168 73.3965 21.9473C73.834 21.6777 74.332 21.543 74.8906 21.543C75.7539 21.543 76.4512 21.8418 76.9824 22.4395C77.5176 23.0371 77.7852 23.832 77.7852 24.8242V24.9004C77.7852 25.5176 77.666 26.0723 77.4277 26.5645C77.1934 27.0527 76.8555 27.4336 76.4141 27.707C75.9766 27.9805 75.4727 28.1172 74.9023 28.1172C74.043 28.1172 73.3457 27.8184 72.8105 27.2207C72.2793 26.623 72.0137 25.832 72.0137 24.8477V24.7715ZM73.1035 24.9004C73.1035 25.6035 73.2656 26.168 73.5898 26.5938C73.918 27.0195 74.3555 27.2324 74.9023 27.2324C75.4531 27.2324 75.8906 27.0176 76.2148 26.5879C76.5391 26.1543 76.7012 25.5488 76.7012 24.7715C76.7012 24.0762 76.5352 23.5137 76.2031 23.084C75.875 22.6504 75.4375 22.4336 74.8906 22.4336C74.3555 22.4336 73.9238 22.6465 73.5957 23.0723C73.2676 23.498 73.1035 24.1074 73.1035 24.9004ZM79.2441 28V21.6602H81.7168C82.5605 21.6602 83.207 21.8086 83.6562 22.1055C84.1094 22.3984 84.3359 22.8301 84.3359 23.4004C84.3359 23.6934 84.248 23.959 84.0723 24.1973C83.8965 24.4316 83.6367 24.6113 83.293 24.7363C83.6758 24.8262 83.9824 25.002 84.2129 25.2637C84.4473 25.5254 84.5645 25.8379 84.5645 26.2012C84.5645 26.7832 84.3496 27.2285 83.9199 27.5371C83.4941 27.8457 82.8906 28 82.1094 28H79.2441ZM80.3281 25.2168V27.127H82.1211C82.5742 27.127 82.9121 27.043 83.1348 26.875C83.3613 26.707 83.4746 26.4707 83.4746 26.166C83.4746 25.5332 83.0098 25.2168 82.0801 25.2168H80.3281ZM80.3281 24.3496H81.7285C82.7441 24.3496 83.252 24.0527 83.252 23.459C83.252 22.8652 82.7715 22.5586 81.8105 22.5391H80.3281V24.3496ZM89.9141 28C89.8516 27.875 89.8008 27.6523 89.7617 27.332C89.2578 27.8555 88.6562 28.1172 87.957 28.1172C87.332 28.1172 86.8184 27.9414 86.416 27.5898C86.0176 27.2344 85.8184 26.7852 85.8184 26.2422C85.8184 25.582 86.0684 25.0703 86.5684 24.707C87.0723 24.3398 87.7793 24.1562 88.6895 24.1562H89.7441V23.6582C89.7441 23.2793 89.6309 22.9785 89.4043 22.7559C89.1777 22.5293 88.8438 22.416 88.4023 22.416C88.0156 22.416 87.6914 22.5137 87.4297 22.709C87.168 22.9043 87.0371 23.1406 87.0371 23.418H85.9473C85.9473 23.1016 86.0586 22.7969 86.2812 22.5039C86.5078 22.207 86.8125 21.9727 87.1953 21.8008C87.582 21.6289 88.0059 21.543 88.4668 21.543C89.1973 21.543 89.7695 21.7266 90.1836 22.0938C90.5977 22.457 90.8125 22.959 90.8281 23.5996V26.5176C90.8281 27.0996 90.9023 27.5625 91.0508 27.9062V28H89.9141ZM88.1152 27.1738C88.4551 27.1738 88.7773 27.0859 89.082 26.9102C89.3867 26.7344 89.6074 26.5059 89.7441 26.2246V24.9238H88.8945C87.5664 24.9238 86.9023 25.3125 86.9023 26.0898C86.9023 26.4297 87.0156 26.6953 87.2422 26.8867C87.4688 27.0781 87.7598 27.1738 88.1152 27.1738ZM97.8828 24.9004C97.8828 25.8652 97.6621 26.6426 97.2207 27.2324C96.7793 27.8223 96.1816 28.1172 95.4277 28.1172C94.6582 28.1172 94.0527 27.873 93.6113 27.3848V30.4375H92.5273V21.6602H93.5176L93.5703 22.3633C94.0117 21.8164 94.625 21.543 95.4102 21.543C96.1719 21.543 96.7734 21.8301 97.2148 22.4043C97.6602 22.9785 97.8828 23.7773 97.8828 24.8008V24.9004ZM96.7988 24.7773C96.7988 24.0625 96.6465 23.498 96.3418 23.084C96.0371 22.6699 95.6191 22.4629 95.0879 22.4629C94.4316 22.4629 93.9395 22.7539 93.6113 23.3359V26.3652C93.9355 26.9434 94.4316 27.2324 95.0996 27.2324C95.6191 27.2324 96.0312 27.0273 96.3359 26.6172C96.6445 26.2031 96.7988 25.5898 96.7988 24.7773ZM98.9785 24.7715C98.9785 24.1504 99.0996 23.5918 99.3418 23.0957C99.5879 22.5996 99.9277 22.2168 100.361 21.9473C100.799 21.6777 101.297 21.543 101.855 21.543C102.719 21.543 103.416 21.8418 103.947 22.4395C104.482 23.0371 104.75 23.832 104.75 24.8242V24.9004C104.75 25.5176 104.631 26.0723 104.393 26.5645C104.158 27.0527 103.82 27.4336 103.379 27.707C102.941 27.9805 102.438 28.1172 101.867 28.1172C101.008 28.1172 100.311 27.8184 99.7754 27.2207C99.2441 26.623 98.9785 25.832 98.9785 24.8477V24.7715ZM100.068 24.9004C100.068 25.6035 100.23 26.168 100.555 26.5938C100.883 27.0195 101.32 27.2324 101.867 27.2324C102.418 27.2324 102.855 27.0176 103.18 26.5879C103.504 26.1543 103.666 25.5488 103.666 24.7715C103.666 24.0762 103.5 23.5137 103.168 23.084C102.84 22.6504 102.402 22.4336 101.855 22.4336C101.32 22.4336 100.889 22.6465 100.561 23.0723C100.232 23.498 100.068 24.1074 100.068 24.9004ZM106.209 28V21.6602H108.682C109.525 21.6602 110.172 21.8086 110.621 22.1055C111.074 22.3984 111.301 22.8301 111.301 23.4004C111.301 23.6934 111.213 23.959 111.037 24.1973C110.861 24.4316 110.602 24.6113 110.258 24.7363C110.641 24.8262 110.947 25.002 111.178 25.2637C111.412 25.5254 111.529 25.8379 111.529 26.2012C111.529 26.7832 111.314 27.2285 110.885 27.5371C110.459 27.8457 109.855 28 109.074 28H106.209ZM107.293 25.2168V27.127H109.086C109.539 27.127 109.877 27.043 110.1 26.875C110.326 26.707 110.439 26.4707 110.439 26.166C110.439 25.5332 109.975 25.2168 109.045 25.2168H107.293ZM107.293 24.3496H108.693C109.709 24.3496 110.217 24.0527 110.217 23.459C110.217 22.8652 109.736 22.5586 108.775 22.5391H107.293V24.3496Z" fill="#0F2438"/>
<g clip-path="url(#clip0_1:490)">
<path d="M10.6415 22.9294C8.69207 22.9294 7.10614 24.5154 7.10614 26.4648C7.10614 28.4141 8.69207 30.0001 10.6415 30.0001C12.5908 30.0001 14.1768 28.4141 14.1768 26.4648C14.1768 24.5154 12.5908 22.9294 10.6415 22.9294ZM10.6415 27.8789C9.86156 27.8789 9.22735 27.2446 9.22735 26.4648C9.22735 25.6849 9.86156 25.0507 10.6415 25.0507C11.421 25.0507 12.0556 25.6849 12.0556 26.4648C12.0556 27.2446 11.4214 27.8789 10.6415 27.8789Z" fill="#0F2438" stroke="white" stroke-width="0.3"/>
<path d="M21.1062 22.9294C19.1568 22.9294 17.5709 24.5154 17.5709 26.4648C17.5709 28.4141 19.1568 30.0001 21.1062 30.0001C23.0556 30.0001 24.6415 28.4141 24.6415 26.4648C24.6415 24.5154 23.0556 22.9294 21.1062 22.9294ZM21.1062 27.8789C20.3263 27.8789 19.6921 27.2446 19.6921 26.4648C19.6921 25.6849 20.3263 25.0507 21.1062 25.0507C21.8861 25.0507 22.5203 25.6849 22.5203 26.4648C22.5203 27.2446 21.8861 27.8789 21.1062 27.8789Z" fill="#0F2438" stroke="white" stroke-width="0.3"/>
<path d="M27.2391 8.90559C27.0376 8.65245 26.7322 8.50506 26.409 8.50506H7.83814L6.87405 3.6327C6.78956 3.20597 6.45302 2.87402 6.02487 2.79555L1.7825 2.01778C1.20522 1.91136 0.653703 2.29357 0.547992 2.86981C0.442282 3.44605 0.823726 3.99861 1.40002 4.10432L4.9332 4.75198L8.04567 20.4837C8.14395 20.9804 8.57986 21.3385 9.0861 21.3385H23.9344C24.4282 21.3385 24.8564 20.9981 24.9677 20.5162L27.4424 9.80427C27.5152 9.48927 27.4403 9.15836 27.2391 8.90559ZM23.0908 19.2174H9.95716L8.25775 10.6266H25.0751L23.0908 19.2174Z" fill="#0F2438" stroke="white" stroke-width="0.3"/>
</g>
<defs>
<clipPath id="clip0_1:490">
<rect width="28" height="28" fill="white" transform="translate(0 2)"/>
</clipPath>
</defs>
</svg>
