<svg width="115" height="28" viewBox="0 0 115 28" fill="none" xmlns="http://www.w3.org/2000/svg">
<path d="M50.2002 9.04688H51.9297V19H50.2002V11.9111L45.832 19H44.1025V9.04688H45.832V16.1426L50.2002 9.04688ZM59.4424 13.627C59.4424 13.9551 59.3421 14.2581 59.1416 14.5361C58.9456 14.8096 58.6676 15.0283 58.3076 15.1924C59.1553 15.4886 59.5791 16.0605 59.5791 16.9082C59.5791 17.5872 59.3034 18.1296 58.752 18.5352C58.2005 18.9362 57.4622 19.1367 56.5371 19.1367C55.972 19.1367 55.457 19.0433 54.9922 18.8564C54.5273 18.665 54.165 18.3962 53.9053 18.0498C53.6455 17.6989 53.5156 17.2842 53.5156 16.8057H55.1699C55.1699 17.1064 55.3044 17.3594 55.5732 17.5645C55.8421 17.765 56.1816 17.8652 56.5918 17.8652C56.9974 17.8652 57.3187 17.7718 57.5557 17.585C57.7972 17.3936 57.918 17.1452 57.918 16.8398C57.918 16.4798 57.8132 16.2201 57.6035 16.0605C57.3939 15.901 57.0703 15.8213 56.6328 15.8213H55.4434V14.625H56.6738C57.4167 14.6159 57.7881 14.3105 57.7881 13.709C57.7881 13.4082 57.681 13.1735 57.4668 13.0049C57.2526 12.8363 56.9587 12.752 56.585 12.752C56.2204 12.752 55.9128 12.8431 55.6621 13.0254C55.4115 13.2031 55.2861 13.4287 55.2861 13.7021H53.6318C53.6318 13.0505 53.9053 12.5173 54.4521 12.1025C54.999 11.6833 55.694 11.4736 56.5371 11.4736C57.4531 11.4736 58.1663 11.6605 58.6768 12.0342C59.1872 12.4079 59.4424 12.9388 59.4424 13.627ZM64.4736 12.0137C65.4033 12.0137 66.1484 12.3258 66.709 12.9502C67.2695 13.57 67.5498 14.4131 67.5498 15.4795V15.5615C67.5498 16.6279 67.2445 17.4915 66.6338 18.1523C66.0277 18.8132 65.2028 19.1436 64.1592 19.1436C63.1429 19.1436 62.3226 18.8063 61.6982 18.1318C61.0739 17.4574 60.7617 16.5368 60.7617 15.3701V14.8916C60.7617 13.2965 61.0443 12.0342 61.6094 11.1045C62.1745 10.1748 63.0176 9.59375 64.1387 9.36133C64.7676 9.23372 65.1732 9.09928 65.3555 8.95801C65.5423 8.81217 65.6357 8.61621 65.6357 8.37012H66.9756C66.9756 8.8304 66.9004 9.2041 66.75 9.49121C66.5996 9.77832 66.3695 10.013 66.0596 10.1953C65.7497 10.373 65.2165 10.5417 64.46 10.7012C63.7673 10.847 63.2386 11.1068 62.874 11.4805C62.514 11.8542 62.2725 12.3714 62.1494 13.0322C62.8102 12.3532 63.585 12.0137 64.4736 12.0137ZM64.1455 13.3467C63.6077 13.3467 63.1862 13.529 62.8809 13.8936C62.5755 14.2536 62.4229 14.8096 62.4229 15.5615C62.4229 16.2725 62.5732 16.8262 62.874 17.2227C63.1748 17.6191 63.6032 17.8174 64.1592 17.8174C64.7106 17.8174 65.1367 17.6191 65.4375 17.2227C65.7428 16.8216 65.8955 16.2201 65.8955 15.418C65.8955 14.7799 65.7428 14.2764 65.4375 13.9072C65.1367 13.5335 64.7061 13.3467 64.1455 13.3467ZM75.2061 15.377C75.2061 16.5208 74.9463 17.4346 74.4268 18.1182C73.9072 18.7972 73.21 19.1367 72.335 19.1367C71.5238 19.1367 70.8743 18.8701 70.3867 18.3369V21.8438H68.7256V11.6035H70.2568L70.3252 12.3555C70.8128 11.763 71.4759 11.4668 72.3145 11.4668C73.2168 11.4668 73.9232 11.804 74.4336 12.4785C74.9486 13.1484 75.2061 14.0804 75.2061 15.2744V15.377ZM73.5518 15.2334C73.5518 14.4951 73.4036 13.9095 73.1074 13.4766C72.8158 13.0436 72.3965 12.8271 71.8496 12.8271C71.1706 12.8271 70.6829 13.1074 70.3867 13.668V16.9492C70.6875 17.5234 71.1797 17.8105 71.8633 17.8105C72.3919 17.8105 72.8044 17.5986 73.1006 17.1748C73.4014 16.7464 73.5518 16.0993 73.5518 15.2334ZM81.0371 19C80.9642 18.8587 80.9004 18.6286 80.8457 18.3096C80.3171 18.861 79.6699 19.1367 78.9043 19.1367C78.1615 19.1367 77.5553 18.9248 77.0859 18.501C76.6165 18.0771 76.3818 17.5531 76.3818 16.9287C76.3818 16.1403 76.6735 15.5365 77.2568 15.1172C77.8447 14.6934 78.6833 14.4814 79.7725 14.4814H80.791V13.9961C80.791 13.6133 80.6839 13.3079 80.4697 13.0801C80.2555 12.8477 79.9297 12.7314 79.4922 12.7314C79.1139 12.7314 78.804 12.8271 78.5625 13.0186C78.321 13.2054 78.2002 13.4447 78.2002 13.7363H76.5391C76.5391 13.3307 76.6735 12.9525 76.9424 12.6016C77.2113 12.2461 77.5758 11.9681 78.0361 11.7676C78.501 11.5671 79.0182 11.4668 79.5879 11.4668C80.4538 11.4668 81.1442 11.6855 81.6592 12.123C82.1742 12.556 82.4385 13.1667 82.4521 13.9551V17.291C82.4521 17.9564 82.5456 18.4873 82.7324 18.8838V19H81.0371ZM79.2119 17.8037C79.54 17.8037 79.8477 17.724 80.1348 17.5645C80.4264 17.4049 80.6452 17.1908 80.791 16.9219V15.5273H79.8955C79.2803 15.5273 78.8177 15.6344 78.5078 15.8486C78.1979 16.0628 78.043 16.3659 78.043 16.7578C78.043 17.0768 78.1478 17.332 78.3574 17.5234C78.5716 17.7103 78.8564 17.8037 79.2119 17.8037ZM90.457 19H88.7959V16.0127H85.918V19H84.2568V11.6035H85.918V14.6865H88.7959V11.6035H90.457V19ZM98.4961 19H96.835V16.0127H93.957V19H92.2959V11.6035H93.957V14.6865H96.835V11.6035H98.4961V19ZM99.959 15.2334C99.959 14.5088 100.103 13.8571 100.39 13.2783C100.677 12.695 101.08 12.2484 101.6 11.9385C102.119 11.624 102.716 11.4668 103.391 11.4668C104.389 11.4668 105.198 11.7881 105.817 12.4307C106.442 13.0732 106.779 13.9255 106.829 14.9873L106.836 15.377C106.836 16.1061 106.695 16.7578 106.412 17.332C106.134 17.9062 105.733 18.3506 105.209 18.665C104.689 18.9795 104.088 19.1367 103.404 19.1367C102.361 19.1367 101.524 18.7904 100.896 18.0977C100.271 17.4004 99.959 16.473 99.959 15.3154V15.2334ZM101.62 15.377C101.62 16.138 101.777 16.735 102.092 17.168C102.406 17.5964 102.844 17.8105 103.404 17.8105C103.965 17.8105 104.4 17.5918 104.71 17.1543C105.024 16.7168 105.182 16.0765 105.182 15.2334C105.182 14.486 105.02 13.8936 104.696 13.4561C104.377 13.0186 103.942 12.7998 103.391 12.7998C102.848 12.7998 102.418 13.0163 102.099 13.4492C101.78 13.8776 101.62 14.5202 101.62 15.377ZM111.498 19.1367C110.445 19.1367 109.591 18.8063 108.935 18.1455C108.283 17.4801 107.957 16.596 107.957 15.4932V15.2881C107.957 14.5498 108.098 13.8913 108.381 13.3125C108.668 12.7292 109.069 12.2757 109.584 11.9521C110.099 11.6286 110.673 11.4668 111.307 11.4668C112.314 11.4668 113.091 11.7881 113.638 12.4307C114.189 13.0732 114.465 13.9824 114.465 15.1582V15.8281H109.632C109.682 16.4388 109.885 16.9219 110.24 17.2773C110.6 17.6328 111.051 17.8105 111.594 17.8105C112.355 17.8105 112.975 17.5029 113.453 16.8877L114.349 17.7422C114.052 18.1842 113.656 18.5283 113.159 18.7744C112.667 19.016 112.113 19.1367 111.498 19.1367ZM111.3 12.7998C110.844 12.7998 110.475 12.9593 110.192 13.2783C109.914 13.5973 109.737 14.0417 109.659 14.6113H112.824V14.4883C112.788 13.9323 112.64 13.513 112.38 13.2305C112.12 12.9434 111.76 12.7998 111.3 12.7998Z" fill="#0F2438"/>
<path d="M14 26.4422C13.6014 26.4422 13.217 26.2978 12.9175 26.0355C11.7864 25.0464 10.6959 24.1169 9.73372 23.297L9.7288 23.2928C6.90792 20.8889 4.47198 18.8129 2.77709 16.7679C0.882475 14.4817 0 12.3141 0 9.94606C0 7.64534 0.788908 5.52279 2.22125 3.96911C3.67068 2.39706 5.6595 1.53125 7.82201 1.53125C9.43828 1.53125 10.9185 2.04224 12.2214 3.04989C12.8789 3.55853 13.4749 4.18103 14 4.90713C14.5253 4.18103 15.1211 3.55853 15.7788 3.04989C17.0817 2.04224 18.5619 1.53125 20.1782 1.53125C22.3404 1.53125 24.3295 2.39706 25.7789 3.96911C27.2113 5.52279 27.9999 7.64534 27.9999 9.94606C27.9999 12.3141 27.1177 14.4817 25.2231 16.7677C23.5282 18.8129 21.0925 20.8887 18.272 23.2923C17.3081 24.1135 16.2159 25.0445 15.0822 26.0359C14.7829 26.2978 14.3984 26.4422 14 26.4422ZM7.82201 3.17144C6.12307 3.17144 4.56234 3.84948 3.42693 5.0808C2.27465 6.33071 1.63998 8.05849 1.63998 9.94606C1.63998 11.9377 2.38018 13.7188 4.03982 15.7213C5.64391 17.657 8.02986 19.6902 10.7924 22.0446L10.7976 22.0488C11.7633 22.8719 12.8582 23.805 13.9976 24.8014C15.1439 23.8031 16.2404 22.8685 17.2082 22.0441C19.9705 19.6898 22.3563 17.657 23.9603 15.7213C25.6198 13.7188 26.36 11.9377 26.36 9.94606C26.36 8.05849 25.7253 6.33071 24.573 5.0808C23.4378 3.84948 21.8769 3.17144 20.1782 3.17144C18.9336 3.17144 17.7909 3.56707 16.782 4.34722C15.8828 5.04278 15.2565 5.92205 14.8893 6.53728C14.7004 6.85366 14.368 7.0425 14 7.0425C13.6319 7.0425 13.2995 6.85366 13.1107 6.53728C12.7437 5.92205 12.1173 5.04278 11.218 4.34722C10.209 3.56707 9.06636 3.17144 7.82201 3.17144Z" fill="#0F2438"/>
</svg>
